<?xml version="1.0" encoding="UTF-8"?>
<svg version="1.1" viewBox="0 0 1200 1200" fill="#ea4aaa" xmlns="http://www.w3.org/2000/svg">
 <path d="m600 259.55c201.56 0 275.72 266.11 104.06 370.92 131.29 44.062 222.89 167.68 222.89 310.03h-46.078c0-249.42-302.95-375.1-479.44-198.61-50.812 50.812-82.266 121.03-82.266 198.61h-46.078c0-142.31 91.547-265.97 222.89-310.03-110.39-67.359-129.19-220.5-37.406-312.32 36.188-36.234 86.203-58.594 141.42-58.594zm-555.84 626.34h46.078c0-127.26 103.17-230.44 230.44-230.44 32.531 0 64.406-9.4219 91.594-26.766l-24.656-38.719c-81.516 51.984-191.48-5.9531-191.48-105.23 0-89.203 90.609-148.4 171.61-115.41l17.297-42.656c-20.297-8.25-42.188-12.562-64.266-12.562-167.58 0-234.52 218.21-95.438 312.19-107.3 39.422-181.18 141.98-181.18 259.6zm1065.6 0h46.078c0-117.61-73.875-220.18-181.08-259.6 45.984-31.078 75.234-83.297 75.234-141.52 0-121.92-123.79-203.34-234.94-158.11l17.297 42.656c80.906-32.953 171.61 26.156 171.61 115.41 0 99.281-109.97 157.22-191.53 105.23l-24.656 38.719c27.188 17.297 59.016 26.766 91.594 26.766 127.22 0 230.39 103.17 230.39 230.44zm-400.92-535.18c-96.75-96.75-262.82-27.844-262.82 108.84 0 136.74 166.08 205.6 262.82 108.84 60.141-60.094 60.141-157.6 0-217.69z" />
</svg>
