<?xml version="1.0" encoding="UTF-8"?>
<svg version="1.1" viewBox="0 0 1200 1200"  fill="#ea4aaa" xmlns="http://www.w3.org/2000/svg">
 <path d="m765.56 587.44c80.906-53.812 134.44-145.69 134.44-249.94 0-165.42-134.58-300-300-300s-300 134.58-300 300c0 104.25 53.484 196.13 134.44 249.94-229.6 70.875-396.94 285-396.94 537.56 0 20.719 16.781 37.5 37.5 37.5s37.5-16.781 37.5-37.5c0-268.78 218.72-487.5 487.5-487.5s487.5 218.72 487.5 487.5c0 20.719 16.781 37.5 37.5 37.5s37.5-16.781 37.5-37.5c0-252.56-167.34-466.69-396.94-537.56zm-390.56-249.94c0-124.08 100.92-225 225-225s225 100.92 225 225-100.92 225-225 225-225-100.92-225-225z"/>
</svg>
